<?xml version="1.0" encoding="UTF-8"?>
<svg xmlns="http://www.w3.org/2000/svg" width="1090" height="197" viewBox="0 0 1090 197" fill="none">
  <g clip-path="url(#clip0_38_755)">
    <path d="M63.3603 5.11914V8.27914C63.3603 40.7658 63.3836 73.2558 63.4303 105.749C63.4303 117.659 68.4303 126.529 78.8003 132.489C94.9403 141.739 110.97 151.159 127.05 160.489C127.71 160.869 128.33 161.329 129.19 161.899C128.31 162.479 127.68 162.899 127.02 163.319C108.18 174.119 89.3469 184.926 70.5203 195.739C69.8143 196.244 68.9682 196.515 68.1003 196.515C67.2324 196.515 66.3862 196.244 65.6803 195.739C48.6803 185.819 31.6203 176.079 14.6803 166.099C5.62027 160.769 0.830275 152.659 0.800275 142.099C0.730275 108.809 0.80027 75.5191 0.74027 42.2291C0.665474 41.5805 0.796043 40.9248 1.11358 40.3543C1.43111 39.7838 1.91961 39.3273 2.51027 39.0491" fill="#FF6600"></path>
    <path d="M145 191.851V189.001C145 156.521 144.88 124.001 145 91.571C145 79.171 139.91 70.1209 129.06 63.9709C113 54.8709 97.0604 45.4609 81.1504 36.1709C80.5404 35.8209 79.9604 35.4209 78.9004 34.7509C80.5804 33.7509 81.9004 33.0009 83.1604 32.2609C101.42 21.7909 119.71 11.3609 137.93 0.820946C138.646 0.326792 139.497 0.067967 140.367 0.0805136C141.236 0.0930603 142.08 0.376353 142.78 0.890946C159.73 10.7909 176.78 20.5409 193.69 30.4609C202.78 35.7809 207.69 43.8309 207.75 54.4609C207.85 87.9209 207.85 121.378 207.75 154.831C207.716 155.402 207.561 155.959 207.293 156.464C207.026 156.969 206.653 157.412 206.2 157.761" fill="#FF6600"></path>
    <path d="M270.91 160.699V34.6992H288.91V144.999H357.13V160.699H270.91Z" fill="#030076"></path>
    <path d="M432.38 162.14C423.242 162.227 414.171 160.578 405.65 157.28C397.705 154.216 390.453 149.596 384.32 143.69C378.336 137.883 373.575 130.937 370.32 123.26C363.599 106.883 363.599 88.5177 370.32 72.1403C373.575 64.4639 378.336 57.5172 384.32 51.7103C390.428 45.8166 397.648 41.197 405.56 38.1204C414.109 34.8075 423.212 33.1579 432.38 33.2604C441.471 33.1637 450.5 34.7715 459 38.0003C466.915 41.0277 474.138 45.6191 480.24 51.5003C486.253 57.3169 491.017 64.2993 494.24 72.0204C500.839 88.5147 500.839 106.916 494.24 123.41C491.001 131.096 486.238 138.046 480.24 143.84C474.141 149.732 466.917 154.334 459 157.37C450.502 160.609 441.473 162.227 432.38 162.14ZM432.2 146.14C438.881 146.215 445.514 144.992 451.729 142.54C457.524 140.233 462.791 136.773 467.21 132.37C471.605 127.97 475.091 122.747 477.469 117C479.969 110.89 481.224 104.342 481.159 97.7404C481.25 91.3414 480.063 84.9887 477.668 79.0543C475.272 73.12 471.717 67.7233 467.21 63.1803C462.811 58.7311 457.541 55.2382 451.729 52.9203C439.214 48.1205 425.365 48.1205 412.85 52.9203C407.016 55.2468 401.718 58.7379 397.28 63.1803C392.858 67.5856 389.342 72.814 386.93 78.5704C384.419 84.6461 383.164 91.1669 383.24 97.7404C383.17 104.342 384.425 110.891 386.93 117C389.32 122.779 392.845 128.018 397.298 132.409C401.75 136.799 407.038 140.251 412.85 142.56C419.009 144.988 425.58 146.197 432.2 146.12V146.14Z" fill="#030076"></path>
    <path d="M583.58 162.14C574.421 162.242 565.323 160.624 556.76 157.37C548.899 154.38 541.722 149.834 535.659 144.004C529.597 138.174 524.774 131.179 521.48 123.44C514.76 106.938 514.76 88.4623 521.48 71.9602C524.759 64.2637 529.566 57.3133 535.61 51.5301C541.747 45.6426 548.999 41.0423 556.94 38.0001C565.563 34.7351 574.721 33.1171 583.94 33.2302C593.284 33.1201 602.566 34.7688 611.3 38.0901C619.386 41.1953 626.608 46.1953 632.36 52.6701L621.2 63.8601C616.402 59.0633 610.675 55.2964 604.37 52.7901C598.075 50.4084 591.391 49.2182 584.66 49.2801C577.804 49.2171 570.997 50.4381 564.59 52.8801C558.638 55.1399 553.198 58.5671 548.59 62.9601C544.07 67.3019 540.513 72.5453 538.15 78.3502C533.231 90.7189 533.231 104.501 538.15 116.87C540.527 122.694 544.081 127.964 548.59 132.35C553.163 136.777 558.581 140.236 564.52 142.52C570.901 144.969 577.686 146.191 584.52 146.12C591.085 146.147 597.609 145.093 603.83 143C610.239 140.741 616.093 137.141 621 132.44L631.26 146.12C624.826 151.514 617.396 155.591 609.39 158.12C601.051 160.807 592.341 162.163 583.58 162.14ZM614 143.78V97.0001H631.28V146.14L614 143.78Z" fill="#030076"></path>
    <path d="M722.53 162.141C713.37 162.242 704.273 160.624 695.71 157.371C687.848 154.381 680.671 149.835 674.609 144.004C668.546 138.174 663.724 131.18 660.43 123.441C653.71 106.939 653.71 88.4628 660.43 71.9607C663.715 64.2683 668.521 57.3192 674.56 51.5307C680.7 45.6484 687.951 41.0489 695.89 38.0007C713.452 31.6096 732.709 31.6415 750.25 38.0907C758.335 41.1958 765.557 46.1958 771.31 52.6707L760.15 63.8307C755.355 59.0296 749.627 55.2621 743.32 52.7607C737.024 50.378 730.34 49.1878 723.61 49.2507C716.754 49.1892 709.947 50.4102 703.54 52.8507C697.589 55.1128 692.149 58.5397 687.54 62.9307C683.023 67.2751 679.466 72.5177 677.1 78.3207C672.18 90.6894 672.18 104.472 677.1 116.841C679.48 122.663 683.034 127.932 687.54 132.321C692.112 136.747 697.53 140.206 703.47 142.491C709.85 144.94 716.636 146.161 723.47 146.091C730.032 146.128 736.556 145.085 742.78 143.001C749.209 140.752 755.081 137.151 760 132.441L770.26 146.121C763.828 151.518 756.397 155.596 748.39 158.121C740.035 160.814 731.308 162.171 722.53 162.141ZM753 143.781V97.0007H770.28V146.141L753 143.781Z" fill="#030076"></path>
    <path d="M804.61 160.699V34.6992H819.37L875.89 129.919H868L923.8 34.6992H938.56L938.74 160.699H921.43L921.25 61.8792H925.39L875.71 145.399H867.43L817.43 61.8792H821.93V160.699H804.61Z" fill="#030076"></path>
    <path d="M957.43 160.699L1014.49 34.6992H1032.31L1089.55 160.699H1070.65L1019.71 44.7792H1026.91L976 160.699H957.43ZM981.73 129.199L986.59 114.799H1057.51L1062.73 129.199H981.73Z" fill="#030076"></path>
  </g>
  <defs>
    <clipPath id="clip0_38_755">
      <rect width="1090" height="197" fill="white"></rect>
    </clipPath>
  </defs>
</svg>
